<svg xmlns="http://www.w3.org/2000/svg" height="1280" preserveAspectRatio="none" style="display: block;" version="1.1" viewBox="0 0 1331 2048" width="832">
<path d="M 0 0 L 1331 0 L 1331 2048 L 0 2048 L 0 0 z" fill="rgb(255,255,255)" transform="translate(0,0)"></path>
<path d="M 619.329 447.313 L 619.885 445.055 C 626.042 442.688 639.955 440.638 646.865 439.17 C 666.07 435.09 686.846 431.699 705.69 426.391 L 705.917 448.007 L 708.078 449.797 L 708.121 472.548 C 790.017 477.548 859.024 507.858 905.314 578.002 C 940.059 632.321 940.305 669.239 940.521 731.066 L 940.512 826.644 L 941.058 1154.53 C 963.887 1166.23 980.529 1188.84 981.426 1214.76 C 982.371 1242.04 981.934 1270.28 981.56 1297.55 C 981.329 1314.48 959.384 1329.04 944.182 1320.31 C 939.369 1317.77 934.068 1310.33 930.61 1309.42 C 917.019 1326.1 910.208 1328.63 893.352 1314.55 C 892.289 1313.67 891.246 1312.77 890.221 1311.85 C 885.197 1313.97 882.627 1318.58 877.8 1321.37 C 866.912 1327.67 856.664 1319.67 849.781 1311.36 C 852.843 1354.19 858.463 1400.48 862.543 1443.49 L 896.261 1787.1 C 872.138 1787.35 848.012 1787.37 823.888 1787.16 C 814.652 1787.12 794.624 1786.56 786.116 1787.4 L 784.054 1787.56 C 772.023 1786.74 692.28 1786.01 683.851 1788.05 L 681.902 1787.45 C 680.443 1780.06 680.936 1742.66 680.926 1732.54 L 680.748 1614.68 L 680.886 1124.79 L 651.803 1124.69 C 651.181 1184.47 651.12 1244.26 651.622 1304.04 C 651.715 1453.08 652.809 1603.74 651.16 1752.63 C 650.261 1763.03 650.656 1776.04 650.709 1786.67 C 639.888 1786.65 613.499 1785.94 603.847 1787.16 C 595.849 1787.26 553.64 1786.71 548.944 1787.68 L 546.961 1787.46 C 535.737 1786.7 519.903 1787.14 508.198 1787.15 L 435.727 1787.43 C 439.403 1742.75 445.101 1695.37 449.573 1650.47 L 482.577 1314.76 L 481.552 1312.93 C 465.262 1329.37 458.159 1325.54 442.663 1311.24 C 434.289 1312.54 429.756 1335.43 405.844 1316.43 C 405.308 1315.5 404.856 1314.7 404.353 1313.74 L 401.602 1309.51 C 382.021 1329.01 357.386 1329.46 350.916 1295.74 C 349.181 1286.7 351.323 1268.39 350.987 1257.93 C 350.569 1244.92 350.214 1227.8 351.254 1214.94 C 351.741 1208.57 352.998 1202.28 355 1196.21 C 361.546 1176.69 373.824 1163.74 392.012 1154.66 L 392.047 690.645 C 396.398 600.947 446.318 528.786 529.425 492.832 C 558.903 480.079 585.662 475.994 617.28 472.755 L 617.32 449.196 L 619.329 447.313 z" fill="rgb(61,110,254)" transform="translate(0,0)"></path>
<path d="M 482.949 938.018 L 849.28 937.979 C 850.375 942.653 849.968 962.233 849.962 968.045 L 849.905 1047.76 C 849.907 1054.82 849.627 1081.54 850.829 1087.54 L 850.969 1156.39 C 811.829 1178.95 809.404 1208.48 810.851 1249.24 C 811.193 1258.86 808.611 1271.57 814.034 1280.86 C 823.481 1294.97 839.935 1289.67 847.809 1278.01 L 850.34 1280.98 C 850.183 1287.07 849.312 1303.19 850.96 1308.1 L 849.781 1311.36 C 852.843 1354.19 858.463 1400.48 862.543 1443.49 L 896.261 1787.1 C 872.138 1787.35 848.012 1787.37 823.888 1787.16 C 814.652 1787.12 794.624 1786.56 786.116 1787.4 L 784.054 1787.56 C 772.023 1786.74 692.28 1786.01 683.851 1788.05 L 681.902 1787.45 C 680.443 1780.06 680.936 1742.66 680.926 1732.54 L 680.748 1614.68 L 680.886 1124.79 L 651.803 1124.69 C 651.181 1184.47 651.12 1244.26 651.622 1304.04 C 651.715 1453.08 652.809 1603.74 651.16 1752.63 C 650.261 1763.03 650.656 1776.04 650.709 1786.67 C 639.888 1786.65 613.499 1785.94 603.847 1787.16 C 595.849 1787.26 553.64 1786.71 548.944 1787.68 L 546.961 1787.46 C 535.737 1786.7 519.903 1787.14 508.198 1787.15 L 435.727 1787.43 C 439.403 1742.75 445.101 1695.37 449.573 1650.47 L 482.577 1314.76 C 484.066 1312.33 482.771 1310.11 482.002 1307.7 L 482.203 1306.79 C 484.568 1298.58 481.474 1282.93 484.016 1276.4 C 488.406 1285.09 496.543 1290.23 505.902 1288.71 C 526.815 1284.58 521.363 1259.67 522.029 1245.03 C 523.85 1204.99 517.5 1178.92 481.876 1156.1 L 481.304 945.739 C 482.384 944.351 482.294 940.824 482.949 938.018 z" fill="rgb(0,0,0)" transform="translate(0,0)"></path>
<path d="M 905.314 578.002 C 940.059 632.321 940.305 669.239 940.521 731.066 L 940.512 826.644 L 941.058 1154.53 C 963.887 1166.23 980.529 1188.84 981.426 1214.76 C 982.371 1242.04 981.934 1270.28 981.56 1297.55 C 981.329 1314.48 959.384 1329.04 944.182 1320.31 C 939.369 1317.77 934.068 1310.33 930.61 1309.42 C 917.019 1326.1 910.208 1328.63 893.352 1314.55 C 892.289 1313.67 891.246 1312.77 890.221 1311.85 C 885.197 1313.97 882.627 1318.58 877.8 1321.37 C 866.912 1327.67 856.664 1319.67 849.781 1311.36 L 850.96 1308.1 C 849.312 1303.19 850.183 1287.07 850.34 1280.98 L 847.809 1278.01 C 839.935 1289.67 823.481 1294.97 814.034 1280.86 C 808.611 1271.57 811.193 1258.86 810.851 1249.24 C 809.404 1208.48 811.829 1178.95 850.969 1156.39 L 850.829 1087.54 C 849.627 1081.54 849.907 1054.82 849.905 1047.76 L 849.962 968.045 C 849.968 962.233 850.375 942.653 849.28 937.979 C 848.431 931.589 848.843 912.864 848.855 905.648 L 848.963 844.395 L 848.833 767.67 C 848.753 752.764 848.135 733.735 849.205 719.346 L 850.335 719.372 L 849.992 717.3 L 849.252 719.215 L 849.81 716.949 L 850.572 719.516 L 849.79 717.302 L 849.471 719.207 L 850.592 719.522 C 852.293 735.854 851.091 778.27 851.085 796.33 C 864.261 795.573 927.569 794.262 937.988 796.719 L 937.986 723.126 C 937.91 664.147 936.217 629.724 902.802 578.061 L 905.314 578.002 z" fill="rgb(255,255,255)" transform="translate(0,0)"></path>
<path d="M 905.314 578.002 C 940.059 632.321 940.305 669.239 940.521 731.066 L 940.512 826.644 L 941.058 1154.53 C 963.887 1166.23 980.529 1188.84 981.426 1214.76 C 982.371 1242.04 981.934 1270.28 981.56 1297.55 C 981.329 1314.48 959.384 1329.04 944.182 1320.31 C 939.369 1317.77 934.068 1310.33 930.61 1309.42 C 917.019 1326.1 910.208 1328.63 893.352 1314.55 C 892.289 1313.67 891.246 1312.77 890.221 1311.85 C 885.197 1313.97 882.627 1318.58 877.8 1321.37 C 866.912 1327.67 856.664 1319.67 849.781 1311.36 L 850.96 1308.1 C 857.159 1317.96 870.349 1325.4 880.314 1317.67 C 896.407 1305.19 885.762 1270.33 889.475 1251.26 L 890.507 1250.7 C 895.267 1261 881.229 1321.09 907.346 1321.27 C 939.678 1321.48 926.752 1277.43 928.56 1257.89 C 928.837 1254.9 928.623 1253.13 930.933 1250.94 C 935.333 1265.3 922.73 1310.3 943.525 1317.26 C 985.448 1331.28 979.166 1286.07 979.135 1261.54 C 979.079 1216.64 985.999 1180.15 938.782 1155.91 L 937.986 798.129 L 851.158 798.167 L 850.999 979.97 C 851.017 1015.36 851.573 1052.24 850.829 1087.54 C 849.627 1081.54 849.907 1054.82 849.905 1047.76 L 849.962 968.045 C 849.968 962.233 850.375 942.653 849.28 937.979 C 848.431 931.589 848.843 912.864 848.855 905.648 L 848.963 844.395 L 848.833 767.67 C 848.753 752.764 848.135 733.735 849.205 719.346 L 850.335 719.372 L 849.992 717.3 L 849.252 719.215 L 849.81 716.949 L 850.572 719.516 L 849.79 717.302 L 849.471 719.207 L 850.592 719.522 C 852.293 735.854 851.091 778.27 851.085 796.33 C 864.261 795.573 927.569 794.262 937.988 796.719 L 937.986 723.126 C 937.91 664.147 936.217 629.724 902.802 578.061 L 905.314 578.002 z" fill="rgb(39,40,47)" transform="translate(0,0)"></path>
<path d="M 851.085 796.33 C 864.261 795.573 927.569 794.262 937.988 796.719 C 933.403 798.147 858.094 797.179 851.085 796.33 z" fill="rgb(25,53,120)" transform="translate(0,0)"></path>
<path d="M 847.809 1278.01 C 847.692 1274.79 847.321 1251.31 849.469 1250.3 C 850.635 1250.82 850.351 1277.91 850.34 1280.98 L 847.809 1278.01 z" fill="rgb(39,40,47)" transform="translate(0,0)"></path>
<path d="M 394.01 689.07 L 394.134 796.003 L 481.083 796.342 C 481.051 787.078 479.948 717.909 482.138 715.133 C 482.884 717.407 484.793 929.508 482.949 938.018 C 482.294 940.824 482.384 944.351 481.304 945.739 L 481.876 1156.1 C 517.5 1178.92 523.85 1204.99 522.029 1245.03 C 521.363 1259.67 526.815 1284.58 505.902 1288.71 C 496.543 1290.23 488.406 1285.09 484.016 1276.4 C 481.474 1282.93 484.568 1298.58 482.203 1306.79 L 482.002 1307.7 C 482.771 1310.11 484.066 1312.33 482.577 1314.76 L 481.552 1312.93 C 465.262 1329.37 458.159 1325.54 442.663 1311.24 C 434.289 1312.54 429.756 1335.43 405.844 1316.43 C 405.308 1315.5 404.856 1314.7 404.353 1313.74 L 401.602 1309.51 C 382.021 1329.01 357.386 1329.46 350.916 1295.74 C 349.181 1286.7 351.323 1268.39 350.987 1257.93 C 350.569 1244.92 350.214 1227.8 351.254 1214.94 C 351.741 1208.57 352.998 1202.28 355 1196.21 C 361.546 1176.69 373.824 1163.74 392.012 1154.66 L 392.047 690.645 L 394.01 689.07 z" fill="rgb(255,255,255)" transform="translate(0,0)"></path>
<path d="M 394.01 689.07 L 394.134 796.003 L 481.083 796.342 C 481.051 787.078 479.948 717.909 482.138 715.133 C 482.884 717.407 484.793 929.508 482.949 938.018 C 482.294 940.824 482.384 944.351 481.304 945.739 C 480.675 896.801 481.124 847.125 481.061 798.116 L 394.21 798.195 L 394.129 1156.16 C 377.364 1163.65 364.926 1176.26 358.254 1193.46 C 355.819 1199.82 354.262 1206.48 353.625 1213.26 C 351.106 1238.37 354.465 1268.41 353.083 1294.02 C 352.111 1312.05 370.524 1326.3 388.439 1317.82 C 393.672 1315.37 397.676 1310.88 399.524 1305.4 C 403.744 1293.21 398.781 1256.87 402.076 1252.12 C 405.453 1266.3 400.088 1302.7 405.367 1311.64 L 404.353 1313.74 L 401.602 1309.51 C 382.021 1329.01 357.386 1329.46 350.916 1295.74 C 349.181 1286.7 351.323 1268.39 350.987 1257.93 C 350.569 1244.92 350.214 1227.8 351.254 1214.94 C 351.741 1208.57 352.998 1202.28 355 1196.21 C 361.546 1176.69 373.824 1163.74 392.012 1154.66 L 392.047 690.645 L 394.01 689.07 z" fill="rgb(39,40,47)" transform="translate(0,0)"></path>
<path d="M 406.291 1313.41 C 407.768 1315.11 411.958 1318.93 414.204 1319.49 C 453.211 1329.28 438.19 1273.38 441.301 1250.7 L 442.436 1250.92 C 445.683 1263.03 441.129 1288.16 443.678 1302.09 C 447.983 1325.63 469.951 1326.81 482.002 1307.7 C 482.771 1310.11 484.066 1312.33 482.577 1314.76 L 481.552 1312.93 C 465.262 1329.37 458.159 1325.54 442.663 1311.24 C 434.289 1312.54 429.756 1335.43 405.844 1316.43 L 406.291 1313.41 z" fill="rgb(39,40,47)" transform="translate(0,0)"></path>
<path d="M 482.203 1306.79 C 481.303 1288.98 481.786 1268.37 482.679 1250.67 C 482.695 1250.37 483.746 1250.14 483.799 1250.58 C 484.327 1254.94 484.573 1273.17 484.016 1276.4 C 481.474 1282.93 484.568 1298.58 482.203 1306.79 z" fill="rgb(39,40,47)" transform="translate(0,0)"></path>
<path d="M 405.367 1311.64 C 405.751 1312.28 405.964 1312.74 406.291 1313.41 L 405.844 1316.43 C 405.308 1315.5 404.856 1314.7 404.353 1313.74 L 405.367 1311.64 z" fill="rgb(106,105,107)" transform="translate(0,0)"></path>
<path d="M 619.329 447.313 L 619.885 445.055 C 626.042 442.688 639.955 440.638 646.865 439.17 C 666.07 435.09 686.846 431.699 705.69 426.391 L 705.917 448.007 C 705.907 456.554 704.932 514.369 707.227 517.382 C 708.643 513.707 708.107 480.777 708.095 474.815 C 727.671 475.437 746.898 478.923 766.031 482.747 C 765.551 539.344 726.533 586.692 667.969 586.665 C 641.829 586.535 616.828 575.957 598.533 557.287 C 577.399 535.608 570.063 511.358 570.357 481.724 C 586.863 478.633 600.329 476.513 616.96 474.67 C 616.938 485.95 616.479 503.439 617.809 514.216 L 617.81 513.769 L 618.042 515.456 L 618.431 515.574 C 619.853 504.9 619.853 458.769 619.329 447.313 z" fill="rgb(255,255,255)" transform="translate(0,0)"></path>
<path d="M 619.329 447.313 C 619.853 458.769 619.853 504.9 618.431 515.574 L 618.042 515.456 L 617.81 513.769 L 617.809 514.216 C 616.479 503.439 616.938 485.95 616.96 474.67 C 600.329 476.513 586.863 478.633 570.357 481.724 C 570.063 511.358 577.399 535.608 598.533 557.287 C 616.828 575.957 641.829 586.535 667.969 586.665 C 726.533 586.692 765.551 539.344 766.031 482.747 C 746.898 478.923 727.671 475.437 708.095 474.815 C 708.107 480.777 708.643 513.707 707.227 517.382 C 704.932 514.369 705.907 456.554 705.917 448.007 L 708.078 449.797 L 708.121 472.548 C 790.017 477.548 859.024 507.858 905.314 578.002 L 902.802 578.061 C 872.49 528.894 822.583 498.978 768.208 483.226 C 768.071 509.916 761.745 532.19 744.199 552.952 C 726.993 573.671 702.132 586.542 675.282 588.633 C 624.237 592.65 572.845 551.697 568.909 500.258 C 569.33 494.917 569.37 487.613 568.361 482.376 C 509.291 495.72 458.044 532.203 426.102 583.652 C 404.031 619.28 397.154 648.06 394.01 689.07 L 392.047 690.645 C 396.398 600.947 446.318 528.786 529.425 492.832 C 558.903 480.079 585.662 475.994 617.28 472.755 L 617.32 449.196 L 619.329 447.313 z" fill="rgb(39,40,47)" transform="translate(0,0)"></path>
<path d="M 568.361 482.376 C 569.37 487.613 569.33 494.917 568.909 500.258 C 567.692 494.032 567.716 488.688 568.361 482.376 z" fill="rgb(25,53,120)" transform="translate(0,0)"></path>
<path d="M 500.125 239.775 C 499.312 199.553 517.402 156.837 545.189 128.036 C 576.168 95.5932 618.889 76.9662 663.743 76.3444 C 707.761 75.7984 750.212 92.665 781.853 123.272 C 811.719 152.404 831.43 194.616 832.06 236.912 C 832.072 237.768 831.952 238.527 831.835 239.371 L 832.632 240.065 C 834.884 242.002 837.128 243.62 839.4 245.653 C 853.2 258.006 853.906 279.593 841.977 293.471 C 837.591 298.575 833.522 300.21 827.888 303.431 C 847.925 312.101 862.058 324.639 870.43 345.335 C 878.185 364.398 877.901 385.788 869.643 404.639 C 861.525 423.171 846.297 437.66 827.385 444.847 C 804.386 453.763 736.693 449.15 708.078 449.797 L 705.917 448.007 L 705.69 426.391 C 686.846 431.699 666.07 435.09 646.865 439.17 C 639.955 440.638 626.042 442.688 619.885 445.055 L 619.329 447.313 L 617.32 449.196 C 588.657 448.221 552.264 451.144 524.309 449.047 C 504.746 447.665 486.589 438.38 474.016 423.329 C 460.946 407.943 454.444 388.037 455.914 367.903 C 457.738 345.801 469.072 324.575 487.775 312.248 C 491.724 309.645 499.427 305.439 502.3 302.834 C 487.439 293.83 479.704 283.631 482.127 264.998 C 483.743 252.571 489.971 247.312 499.438 240.291 L 500.125 239.775 z" fill="rgb(255,255,255)" transform="translate(0,0)"></path>
<path d="M 500.125 239.775 C 499.312 199.553 517.402 156.837 545.189 128.036 C 576.168 95.5932 618.889 76.9662 663.743 76.3444 C 707.761 75.7984 750.212 92.665 781.853 123.272 C 811.719 152.404 831.43 194.616 832.06 236.912 C 832.072 237.768 831.952 238.527 831.835 239.371 L 830.828 242.165 C 816.917 236.822 807.81 241.915 793.796 242.321 C 750.571 243.576 707.605 225.404 681.567 190.26 C 674.581 180.829 670.078 171.217 665.234 160.396 C 664.532 161.981 663.821 163.56 663.098 165.135 C 641.666 211.799 594.806 239.373 544.226 241.303 C 526.028 241.998 519.002 235.376 500.48 242.229 L 500.125 239.775 z" fill="rgb(0,0,0)" transform="translate(0,0)"></path>
<path d="M 503.994 300.864 C 508.119 301.63 511.235 302.23 515.437 302.539 C 551.67 457.35 755.529 471.163 811.839 322.116 C 814.232 315.782 814.568 308.874 817.658 302.525 C 820.41 302.03 822.522 301.691 825.306 301.431 C 826.491 302.215 826.823 302.432 827.888 303.431 C 847.925 312.101 862.058 324.639 870.43 345.335 C 878.185 364.398 877.901 385.788 869.643 404.639 C 861.525 423.171 846.297 437.66 827.385 444.847 C 804.386 453.763 736.693 449.15 708.078 449.797 L 705.917 448.007 L 705.69 426.391 C 686.846 431.699 666.07 435.09 646.865 439.17 C 639.955 440.638 626.042 442.688 619.885 445.055 L 619.329 447.313 L 617.32 449.196 C 588.657 448.221 552.264 451.144 524.309 449.047 C 504.746 447.665 486.589 438.38 474.016 423.329 C 460.946 407.943 454.444 388.037 455.914 367.903 C 457.738 345.801 469.072 324.575 487.775 312.248 C 491.724 309.645 499.427 305.439 502.3 302.834 L 503.994 300.864 z" fill="rgb(0,0,0)" transform="translate(0,0)"></path>
<path d="M 831.835 239.371 L 832.632 240.065 C 834.884 242.002 837.128 243.62 839.4 245.653 C 853.2 258.006 853.906 279.593 841.977 293.471 C 837.591 298.575 833.522 300.21 827.888 303.431 C 826.823 302.432 826.491 302.215 825.306 301.431 C 825.649 301.313 825.992 301.196 826.336 301.079 C 833.317 298.937 839.293 294.354 843.172 288.167 C 853.898 271.141 847.312 252.345 830.828 242.165 L 831.835 239.371 z" fill="rgb(39,40,47)" transform="translate(0,0)"></path>
<path d="M 500.125 239.775 L 500.48 242.229 C 491.87 248.501 485.845 253.358 484.197 265.001 C 481.84 281.654 489.561 293.293 503.994 300.864 L 502.3 302.834 C 487.439 293.83 479.704 283.631 482.127 264.998 C 483.743 252.571 489.971 247.312 499.438 240.291 L 500.125 239.775 z" fill="rgb(39,40,47)" transform="translate(0,0)"></path>
<path d="M 605.912 333.185 L 727.76 333.355 C 724.944 350.178 721.186 357.981 709.474 370.243 C 669.78 405.406 614.859 384.879 605.912 333.185 z" fill="rgb(0,0,0)" transform="translate(0,0)"></path>
<path d="M 717.981 239.668 C 736.7 242.218 737.206 273.434 722.927 285.562 C 703.21 284.287 703.518 250.358 717.981 239.668 z" fill="rgb(0,0,0)" transform="translate(0,0)"></path>
<path d="M 610.178 240.719 C 624.824 241.467 625.521 256.524 624.929 268.506 C 624.544 276.284 621.51 280.402 615.735 285.271 C 602.026 284.816 600.836 272.325 600.873 260.964 C 600.903 252.14 603.84 246.759 610.178 240.719 z" fill="rgb(0,0,0)" transform="translate(0,0)"></path>
<path d="M 655.532 294.238 C 652.113 290.067 649.035 287.065 655.986 286.746 C 660.997 286.529 665.681 284.202 668.881 280.341 C 679.425 267.657 671.383 237.915 674.402 236.014 C 674.489 236.014 675.276 235.916 675.306 236.254 C 676.664 251.377 681.165 274.195 667.186 284.875 C 659.214 290.967 647.697 286.68 662.596 297.308 L 660.873 298.887 C 659.147 297.628 658.084 296.713 656.471 295.289 C 655.78 294.595 656.09 294.948 655.532 294.238 z" fill="rgb(39,40,47)" transform="translate(0,0)"></path>
<path d="M 662.596 297.308 C 664.473 297.767 673.799 299.281 674.341 299.695 C 674.489 300.081 674.47 299.979 674.311 300.395 C 670.955 302.157 666.598 300.729 663.13 299.651 C 662.374 299.408 661.621 299.154 660.873 298.887 L 662.596 297.308 z" fill="rgb(39,40,47)" transform="translate(0,0)"></path>
<path d="M 651.16 1752.63 C 652.195 1768.51 651.546 1788.36 651.363 1804.43 C 651.194 1825.97 651.155 1847.5 651.244 1869.03 C 651.272 1883.64 653.418 1963.23 650.914 1972.27 L 416.517 1972.05 C 416.955 1950.48 423.646 1929.79 439.482 1914.63 C 465.798 1889.45 493.851 1892.77 526.76 1892.99 C 526.761 1880.15 526.423 1865.35 527.285 1852.69 C 533.196 1852.6 541.388 1852.19 547.037 1853.1 C 546.559 1831.38 547.272 1809.23 546.961 1787.46 L 548.944 1787.68 C 553.64 1786.71 595.849 1787.26 603.847 1787.16 C 613.499 1785.94 639.888 1786.65 650.709 1786.67 C 650.656 1776.04 650.261 1763.03 651.16 1752.63 z" fill="rgb(117,45,26)" transform="translate(0,0)"></path>
<path d="M 529.01 1854.76 C 568.501 1855.56 609.794 1855.06 649.391 1855.11 C 648.558 1868.37 649.074 1885.65 649.183 1899.11 C 649.455 1922.76 649.558 1946.41 649.49 1970.06 L 418.538 1969.93 C 425.251 1874 519.349 1901.75 528.66 1894.29 C 529.552 1883.07 529.028 1866.38 529.01 1854.76 z" fill="rgb(251,112,63)" transform="translate(0,0)"></path>
<path d="M 603.847 1787.16 C 617.112 1788.11 635.542 1787.69 649.051 1787.55 C 649.064 1808.64 649.564 1832.05 648.757 1852.95 C 619.472 1852.8 578.39 1851.57 549.862 1853.19 C 548.433 1853.97 548.452 1853.94 547.037 1853.1 C 546.559 1831.38 547.272 1809.23 546.961 1787.46 L 548.944 1787.68 C 553.64 1786.71 595.849 1787.26 603.847 1787.16 z" fill="rgb(255,255,255)" transform="translate(0,0)"></path>
<path d="M 546.961 1787.46 L 548.944 1787.68 C 549.227 1795.6 548.331 1849.95 549.862 1853.19 C 548.433 1853.97 548.452 1853.94 547.037 1853.1 C 546.559 1831.38 547.272 1809.23 546.961 1787.46 z" fill="rgb(39,40,47)" transform="translate(0,0)"></path>
<path d="M 651.16 1752.63 C 652.195 1768.51 651.546 1788.36 651.363 1804.43 C 651.194 1825.97 651.155 1847.5 651.244 1869.03 C 651.272 1883.64 653.418 1963.23 650.914 1972.27 C 649.914 1964.76 650.413 1949.31 650.427 1941.06 L 650.528 1881.84 C 650.532 1875.85 650.966 1859.71 649.391 1855.11 L 648.757 1852.95 C 649.564 1832.05 649.064 1808.64 649.051 1787.55 C 635.542 1787.69 617.112 1788.11 603.847 1787.16 C 613.499 1785.94 639.888 1786.65 650.709 1786.67 C 650.656 1776.04 650.261 1763.03 651.16 1752.63 z" fill="rgb(39,40,47)" transform="translate(0,0)"></path>
<path d="M 683.851 1788.05 C 692.28 1786.01 772.023 1786.74 784.054 1787.56 L 786.116 1787.4 C 786.445 1797.71 786.897 1844.34 785.865 1852.19 C 790.721 1853.51 801.513 1852.9 807.048 1852.86 L 807.088 1892.96 C 844.797 1892.7 875.068 1889.48 900.938 1923.56 C 911.058 1934.27 917.684 1957.46 915.622 1972.15 L 683.495 1972.2 C 681.984 1970.38 681.997 1970.36 681.95 1967.8 C 680.843 1907.82 683.278 1847.39 681.902 1787.45 L 683.851 1788.05 z" fill="rgb(251,112,63)" transform="translate(0,0)"></path>
<path d="M 683.851 1788.05 C 692.28 1786.01 772.023 1786.74 784.054 1787.56 L 786.116 1787.4 C 786.445 1797.71 786.897 1844.34 785.865 1852.19 C 785.217 1852.36 784.453 1852.46 783.895 1852.83 C 750.959 1853.18 717.319 1852.81 684.325 1852.8 C 684.367 1832.42 684.957 1808.06 683.851 1788.05 z" fill="rgb(255,255,255)" transform="translate(0,0)"></path>
<path d="M 784.054 1787.56 L 786.116 1787.4 C 786.445 1797.71 786.897 1844.34 785.865 1852.19 C 785.217 1852.36 784.453 1852.46 783.895 1852.83 C 784.931 1833.11 783.794 1807.86 784.054 1787.56 z" fill="rgb(39,40,47)" transform="translate(0,0)"></path>
<path d="M 681.902 1787.45 L 683.851 1788.05 C 684.957 1808.06 684.367 1832.42 684.325 1852.8 C 717.319 1852.81 750.959 1853.18 783.895 1852.83 C 784.453 1852.46 785.217 1852.36 785.865 1852.19 C 790.721 1853.51 801.513 1852.9 807.048 1852.86 L 807.088 1892.96 C 844.797 1892.7 875.068 1889.48 900.938 1923.56 L 898.731 1924.41 C 871.837 1890.77 843.12 1894.81 804.94 1894.97 L 805.109 1854.99 C 765.064 1854.91 724.053 1855.29 684.064 1854.69 C 684.07 1892.97 683.614 1932.17 684.097 1970.37 L 683.495 1972.2 C 681.984 1970.38 681.997 1970.36 681.95 1967.8 C 680.843 1907.82 683.278 1847.39 681.902 1787.45 z" fill="rgb(71,36,30)" transform="translate(0,0)"></path>
<path d="M 914.319 1968.39 C 914.943 1969.83 915.192 1970.69 915.622 1972.15 L 683.495 1972.2 L 684.097 1970.37 C 714.293 1968.8 907.523 1972.85 914.319 1968.39 z" fill="rgb(117,45,26)" transform="translate(0,0)"></path>
<path d="M 900.938 1923.56 C 911.058 1934.27 917.684 1957.46 915.622 1972.15 C 915.192 1970.69 914.943 1969.83 914.319 1968.39 C 912.93 1952.11 909.75 1937.35 898.731 1924.41 L 900.938 1923.56 z" fill="rgb(71,36,30)" transform="translate(0,0)"></path>
<metadata><recraft-signature>{"signed_by": "recraft", "signature_b64": "MCs944uDwXS/U/OeyflzdA4BSoAp+HXqsgCRwd6lWD3/3tSDt4jfqqh/Rkkyy8N1CFoxjYSSkRFCdCG4o2h9AA==", "signing_algo": "Ed25519", "generation_timestamp": 1784326508, "identifier": "123685ea-d844-44fa-b776-a0a3aa932a62"}</recraft-signature></metadata></svg>